<svg width="32" height="32" viewBox="0 0 512 512" fill="none" xmlns="http://www.w3.org/2000/svg">
  <circle cx="256" cy="256" r="256" fill="#059669"/>
  <path d="M236 61h40v1h-40zM229 62h55v1h-55zM221 63h70v1h-70zM216 64h80v1h-80zM212 65h89v1h-89zM208 66h97v1h-97zM204 67h105v1h-105zM200 68h112v1h-112zM197 69h118v1h-118zM195 70h123v1h-123zM192 71h129v1h-129zM189 72h135v1h-135zM186 73h141v1h-141zM184 74h145v1h-145zM182 75h149v1h-149zM180 76h153v1h-153zM178 77h157v1h-157zM175 78h163v1h-163zM173 79h167v1h-167zM171 80h171v1h-171zM170 81h173v1h-173zM168 82h177v1h-177zM166 83h181v1h-181zM159 84h5v1h-5zM165 84h183v1h-183zM153 85h197v1h-197zM148 86h204v1h-204zM144 87h209v1h-209zM139 88h216v1h-216zM135 89h221v1h-221zM132 90h225v1h-225zM129 91h230v1h-230zM125 92h235v1h-235zM122 93h239v1h-239zM118 94h245v1h-245zM116 95h248v1h-248zM113 96h252v1h-252zM110 97h135v1h-135zM268 97h98v1h-98zM107 98h128v1h-128zM278 98h90v1h-90zM105 99h122v1h-122zM285 99h84v1h-84zM102 100h121v1h-121zM290 100h80v1h-80zM100 101h119v1h-119zM294 101h77v1h-77zM98 102h116v1h-116zM298 102h74v1h-74zM95 103h116v1h-116zM302 103h71v1h-71zM93 104h115v1h-115zM305 104h69v1h-69zM91 105h114v1h-114zM307 105h68v1h-68zM89 106h113v1h-113zM310 106h66v1h-66zM87 107h113v1h-113zM313 107h64v1h-64zM85 108h113v1h-113zM315 108h63v1h-63zM83 109h113v1h-113zM317 109h62v1h-62zM81 110h113v1h-113zM319 110h61v1h-61zM80 111h111v1h-111zM322 111h59v1h-59zM78 112h111v1h-111zM324 112h57v1h-57zM76 113h112v1h-112zM325 113h57v1h-57zM74 114h112v1h-112zM327 114h56v1h-56zM73 115h111v1h-111zM329 115h55v1h-55zM71 116h112v1h-112zM330 116h54v1h-54zM69 117h112v1h-112zM332 117h53v1h-53zM68 118h112v1h-112zM334 118h52v1h-52zM66 119h112v1h-112zM335 119h52v1h-52zM65 120h112v1h-112zM336 120h52v1h-52zM64 121h112v1h-112zM337 121h51v1h-51zM62 122h112v1h-112zM339 122h50v1h-50zM61 123h112v1h-112zM340 123h50v1h-50zM59 124h113v1h-113zM341 124h50v1h-50zM58 125h113v1h-113zM343 125h48v1h-48zM56 126h113v1h-113zM344 126h48v1h-48zM55 127h113v1h-113zM345 127h47v1h-47zM54 128h113v1h-113zM346 128h47v1h-47zM53 129h113v1h-113zM347 129h47v1h-47zM52 130h113v1h-113zM348 130h46v1h-46zM50 131h114v1h-114zM349 131h46v1h-46zM49 132h114v1h-114zM350 132h45v1h-45zM48 133h114v1h-114zM351 133h45v1h-45zM47 134h114v1h-114zM352 134h45v1h-45zM46 135h114v1h-114zM353 135h44v1h-44zM45 136h115v1h-115zM354 136h44v1h-44zM44 137h115v1h-115zM354 137h44v1h-44zM43 138h115v1h-115zM355 138h44v1h-44zM42 139h115v1h-115zM356 139h43v1h-43zM41 140h71v1h-71zM113 140h44v1h-44zM357 140h43v1h-43zM40 141h70v1h-70zM113 141h43v1h-43zM357 141h43v1h-43zM39 142h69v1h-69zM112 142h43v1h-43zM358 142h43v1h-43zM38 143h68v1h-68zM112 143h42v1h-42zM359 143h42v1h-42zM37 144h67v1h-67zM111 144h43v1h-43zM360 144h42v1h-42zM36 145h66v1h-66zM111 145h42v1h-42zM360 145h42v1h-42zM35 146h65v1h-65zM110 146h42v1h-42zM361 146h42v1h-42zM34 147h64v1h-64zM110 147h41v1h-41zM362 147h41v1h-41zM33 148h64v1h-64zM110 148h41v1h-41zM362 148h41v1h-41zM32 149h63v1h-63zM109 149h41v1h-41zM363 149h41v1h-41zM32 150h61v1h-61zM109 150h41v1h-41zM363 150h41v1h-41zM31 151h61v1h-61zM108 151h41v1h-41zM364 151h41v1h-41zM30 152h60v1h-60zM108 152h41v1h-41zM365 152h40v1h-40zM29 153h60v1h-60zM107 153h41v1h-41zM365 153h41v1h-41zM28 154h59v1h-59zM107 154h40v1h-40zM366 154h40v1h-40zM27 155h59v1h-59zM106 155h41v1h-41zM366 155h40v1h-40zM27 156h57v1h-57zM106 156h40v1h-40zM367 156h40v1h-40zM26 157h57v1h-57zM106 157h40v1h-40zM367 157h40v1h-40zM25 158h57v1h-57zM105 158h40v1h-40zM368 158h40v1h-40zM25 159h55v1h-55zM105 159h40v1h-40zM368 159h40v1h-40zM24 160h55v1h-55zM105 160h39v1h-39zM369 160h39v1h-39zM23 161h55v1h-55zM104 161h40v1h-40zM369 161h40v1h-40zM23 162h54v1h-54zM104 162h39v1h-39zM370 162h39v1h-39zM22 163h54v1h-54zM104 163h39v1h-39zM370 163h39v1h-39zM21 164h53v1h-53zM103 164h40v1h-40zM370 164h39v1h-39zM21 165h52v1h-52zM103 165h39v1h-39zM371 165h39v1h-39zM20 166h52v1h-52zM103 166h39v1h-39zM371 166h39v1h-39zM19 167h52v1h-52zM103 167h38v1h-38zM372 167h38v1h-38zM19 168h51v1h-51zM102 168h39v1h-39zM372 168h39v1h-39zM18 169h51v1h-51zM102 169h38v1h-38zM373 169h38v1h-38zM18 170h50v1h-50zM102 170h38v1h-38zM373 170h38v1h-38zM17 171h50v1h-50zM101 171h39v1h-39zM373 171h39v1h-39zM16 172h50v1h-50zM101 172h38v1h-38zM374 172h38v1h-38zM16 173h49v1h-49zM101 173h38v1h-38zM374 173h38v1h-38zM15 174h49v1h-49zM100 174h39v1h-39zM374 174h38v1h-38zM15 175h49v1h-49zM100 175h38v1h-38zM375 175h38v1h-38zM14 176h49v1h-49zM100 176h38v1h-38zM375 176h38v1h-38zM14 177h48v1h-48zM100 177h38v1h-38zM375 177h38v1h-38zM13 178h48v1h-48zM100 178h37v1h-37zM375 178h38v1h-38zM13 179h47v1h-47zM99 179h38v1h-38zM376 179h37v1h-37zM12 180h48v1h-48zM99 180h38v1h-38zM376 180h38v1h-38zM12 181h47v1h-47zM99 181h38v1h-38zM376 181h38v1h-38zM11 182h47v1h-47zM99 182h37v1h-37zM377 182h37v1h-37zM11 183h46v1h-46zM99 183h37v1h-37zM377 183h37v1h-37zM10 184h47v1h-47zM98 184h38v1h-38zM377 184h37v1h-37zM10 185h46v1h-46zM98 185h37v1h-37zM377 185h38v1h-38zM10 186h45v1h-45zM98 186h37v1h-37zM378 186h37v1h-37zM9 187h46v1h-46zM98 187h37v1h-37zM378 187h37v1h-37zM9 188h45v1h-45zM98 188h37v1h-37zM378 188h37v1h-37zM8 189h45v1h-45zM97 189h38v1h-38zM378 189h37v1h-37zM8 190h45v1h-45zM97 190h37v1h-37zM378 190h38v1h-38zM8 191h44v1h-44zM97 191h37v1h-37zM379 191h37v1h-37zM7 192h45v1h-45zM97 192h37v1h-37zM379 192h37v1h-37zM7 193h44v1h-44zM97 193h37v1h-37zM379 193h37v1h-37zM7 194h44v1h-44zM96 194h38v1h-38zM379 194h37v1h-37zM6 195h44v1h-44zM96 195h37v1h-37zM379 195h37v1h-37zM6 196h44v1h-44zM96 196h42v1h-42zM379 196h37v1h-37zM6 197h43v1h-43zM96 197h47v1h-47zM380 197h37v1h-37zM5 198h44v1h-44zM96 198h49v1h-49zM380 198h37v1h-37zM5 199h43v1h-43zM96 199h51v1h-51zM380 199h37v1h-37zM5 200h43v1h-43zM96 200h52v1h-52zM380 200h37v1h-37zM4 201h43v1h-43zM96 201h53v1h-53zM380 201h37v1h-37zM4 202h43v1h-43zM96 202h55v1h-55zM380 202h37v1h-37zM4 203h42v1h-42zM96 203h56v1h-56zM380 203h37v1h-37zM4 204h42v1h-42zM95 204h58v1h-58zM381 204h36v1h-36zM3 205h43v1h-43zM95 205h60v1h-60zM381 205h36v1h-36zM3 206h42v1h-42zM94 206h62v1h-62zM381 206h36v1h-36zM3 207h42v1h-42zM93 207h64v1h-64zM381 207h36v1h-36zM3 208h42v1h-42zM92 208h67v1h-67zM381 208h37v1h-37zM2 209h42v1h-42zM91 209h69v1h-69zM381 209h37v1h-37zM2 210h42v1h-42zM90 210h72v1h-72zM381 210h37v1h-37zM2 211h42v1h-42zM89 211h74v1h-74zM381 211h37v1h-37zM2 212h41v1h-41zM88 212h77v1h-77zM381 212h37v1h-37zM2 213h41v1h-41zM87 213h80v1h-80zM381 213h37v1h-37zM1 214h42v1h-42zM86 214h83v1h-83zM381 214h37v1h-37zM1 215h42v1h-42zM86 215h87v1h-87zM382 215h36v1h-36zM1 216h41v1h-41zM85 216h114v1h-114zM382 216h36v1h-36zM1 217h41v1h-41zM84 217h119v1h-119zM382 217h36v1h-36zM1 218h41v1h-41zM83 218h122v1h-122zM382 218h36v1h-36zM1 219h41v1h-41zM83 219h124v1h-124zM382 219h36v1h-36zM1 220h40v1h-40zM82 220h127v1h-127zM382 220h36v1h-36zM0 221h41v1h-41zM82 221h128v1h-128zM382 221h36v1h-36zM0 222h41v1h-41zM81 222h130v1h-130zM382 222h36v1h-36zM0 223h41v1h-41zM80 223h132v1h-132zM382 223h36v1h-36zM0 224h41v1h-41zM80 224h133v1h-133zM382 224h36v1h-36zM0 225h41v1h-41zM79 225h135v1h-135zM382 225h36v1h-36zM0 226h41v1h-41zM79 226h136v1h-136zM382 226h36v1h-36zM0 227h40v1h-40zM78 227h138v1h-138zM382 227h36v1h-36zM0 228h40v1h-40zM78 228h139v1h-139zM382 228h36v1h-36zM0 229h40v1h-40zM77 229h141v1h-141zM382 229h36v1h-36zM0 230h40v1h-40zM77 230h142v1h-142zM382 230h36v1h-36zM0 231h40v1h-40zM76 231h143v1h-143zM382 231h36v1h-36zM0 232h40v1h-40zM76 232h144v1h-144zM382 232h36v1h-36zM0 233h40v1h-40zM75 233h146v1h-146zM382 233h36v1h-36zM0 234h40v1h-40zM75 234h147v1h-147zM382 234h36v1h-36zM0 235h40v1h-40zM74 235h148v1h-148zM382 235h36v1h-36zM0 236h40v1h-40zM74 236h149v1h-149zM382 236h36v1h-36zM0 237h40v1h-40zM73 237h151v1h-151zM381 237h37v1h-37zM0 238h40v1h-40zM73 238h151v1h-151zM381 238h37v1h-37zM0 239h40v1h-40zM73 239h152v1h-152zM381 239h37v1h-37zM0 240h40v1h-40zM72 240h153v1h-153zM381 240h37v1h-37zM0 241h40v1h-40zM72 241h154v1h-154zM381 241h37v1h-37zM0 242h40v1h-40zM71 242h155v1h-155zM381 242h37v1h-37zM0 243h40v1h-40zM71 243h156v1h-156zM381 243h37v1h-37zM0 244h40v1h-40zM71 244h156v1h-156zM381 244h36v1h-36zM0 245h40v1h-40zM70 245h158v1h-158zM381 245h36v1h-36zM0 246h41v1h-41zM70 246h158v1h-158zM381 246h37v1h-37zM0 247h41v1h-41zM70 247h158v1h-158zM381 247h39v1h-39zM0 248h41v1h-41zM70 248h159v1h-159zM380 248h42v1h-42zM0 249h41v1h-41zM69 249h160v1h-160zM380 249h43v1h-43zM0 250h41v1h-41zM69 250h161v1h-161zM380 250h45v1h-45zM0 251h41v1h-41zM69 251h161v1h-161zM380 251h46v1h-46zM0 252h41v1h-41zM68 252h162v1h-162zM380 252h47v1h-47zM1 253h41v1h-41zM68 253h163v1h-163zM380 253h48v1h-48zM1 254h41v1h-41zM68 254h163v1h-163zM380 254h50v1h-50zM1 255h41v1h-41zM67 255h164v1h-164zM380 255h51v1h-51zM1 256h41v1h-41zM67 256h165v1h-165zM380 256h52v1h-52zM1 257h41v1h-41zM67 257h165v1h-165zM380 257h53v1h-53zM1 258h42v1h-42zM67 258h165v1h-165zM380 258h53v1h-53zM2 259h41v1h-41zM66 259h167v1h-167zM380 259h54v1h-54zM2 260h41v1h-41zM66 260h167v1h-167zM380 260h55v1h-55zM2 261h42v1h-42zM66 261h167v1h-167zM380 261h56v1h-56zM2 262h42v1h-42zM66 262h167v1h-167zM380 262h57v1h-57zM2 263h42v1h-42zM66 263h167v1h-167zM380 263h58v1h-58zM3 264h42v1h-42zM65 264h169v1h-169zM380 264h58v1h-58zM3 265h42v1h-42zM65 265h169v1h-169zM380 265h59v1h-59zM3 266h42v1h-42zM65 266h169v1h-169zM381 266h58v1h-58zM3 267h43v1h-43zM65 267h169v1h-169zM381 267h59v1h-59zM3 268h44v1h-44zM65 268h169v1h-169zM382 268h59v1h-59zM4 269h43v1h-43zM64 269h171v1h-171zM382 269h59v1h-59zM4 270h44v1h-44zM64 270h171v1h-171zM383 270h59v1h-59zM4 271h44v1h-44zM64 271h171v1h-171zM384 271h58v1h-58zM5 272h44v1h-44zM64 272h171v1h-171zM385 272h58v1h-58zM5 273h44v1h-44zM64 273h171v1h-171zM386 273h57v1h-57zM5 274h45v1h-45zM63 274h121v1h-121zM190 274h45v1h-45zM387 274h57v1h-57zM6 275h45v1h-45zM63 275h116v1h-116zM195 275h41v1h-41zM322 275h6v1h-6zM388 275h56v1h-56zM6 276h46v1h-46zM63 276h113v1h-113zM199 276h37v1h-37zM316 276h18v1h-18zM391 276h54v1h-54zM6 277h46v1h-46zM63 277h110v1h-110zM201 277h35v1h-35zM313 277h24v1h-24zM394 277h51v1h-51zM7 278h46v1h-46zM63 278h109v1h-109zM203 278h33v1h-33zM311 278h28v1h-28zM399 278h46v1h-46zM7 279h47v1h-47zM63 279h107v1h-107zM204 279h32v1h-32zM309 279h31v1h-31zM402 279h44v1h-44zM7 280h48v1h-48zM63 280h106v1h-106zM206 280h30v1h-30zM308 280h34v1h-34zM403 280h43v1h-43zM8 281h48v1h-48zM63 281h104v1h-104zM207 281h29v1h-29zM306 281h37v1h-37zM405 281h42v1h-42zM8 282h49v1h-49zM62 282h104v1h-104zM208 282h28v1h-28zM305 282h40v1h-40zM406 282h41v1h-41zM9 283h50v1h-50zM62 283h103v1h-103zM209 283h27v1h-27zM304 283h42v1h-42zM406 283h41v1h-41zM9 284h51v1h-51zM62 284h102v1h-102zM210 284h26v1h-26zM303 284h44v1h-44zM407 284h41v1h-41zM10 285h51v1h-51zM62 285h101v1h-101zM211 285h26v1h-26zM302 285h46v1h-46zM408 285h40v1h-40zM10 286h153v1h-153zM212 286h25v1h-25zM301 286h47v1h-47zM409 286h39v1h-39zM11 287h151v1h-151zM212 287h25v1h-25zM301 287h48v1h-48zM409 287h39v1h-39zM11 288h150v1h-150zM213 288h24v1h-24zM300 288h50v1h-50zM410 288h39v1h-39zM12 289h148v1h-148zM214 289h23v1h-23zM299 289h52v1h-52zM410 289h39v1h-39zM12 290h148v1h-148zM214 290h23v1h-23zM299 290h52v1h-52zM411 290h38v1h-38zM13 291h146v1h-146zM215 291h22v1h-22zM298 291h54v1h-54zM411 291h38v1h-38zM13 292h146v1h-146zM215 292h22v1h-22zM298 292h54v1h-54zM412 292h38v1h-38zM14 293h144v1h-144zM216 293h21v1h-21zM297 293h56v1h-56zM412 293h38v1h-38zM14 294h144v1h-144zM216 294h21v1h-21zM297 294h56v1h-56zM412 294h38v1h-38zM15 295h143v1h-143zM216 295h21v1h-21zM297 295h56v1h-56zM413 295h37v1h-37zM16 296h141v1h-141zM217 296h20v1h-20zM296 296h58v1h-58zM413 296h37v1h-37zM16 297h141v1h-141zM217 297h20v1h-20zM296 297h58v1h-58zM413 297h37v1h-37zM17 298h140v1h-140zM217 298h20v1h-20zM296 298h58v1h-58zM413 298h38v1h-38zM18 299h139v1h-139zM218 299h19v1h-19zM295 299h59v1h-59zM414 299h37v1h-37zM19 300h138v1h-138zM218 300h19v1h-19zM295 300h60v1h-60zM414 300h37v1h-37zM20 301h136v1h-136zM218 301h19v1h-19zM295 301h60v1h-60zM414 301h37v1h-37zM20 302h136v1h-136zM218 302h19v1h-19zM295 302h60v1h-60zM414 302h37v1h-37zM21 303h135v1h-135zM218 303h19v1h-19zM295 303h60v1h-60zM414 303h37v1h-37zM22 304h134v1h-134zM218 304h19v1h-19zM295 304h60v1h-60zM415 304h36v1h-36zM23 305h133v1h-133zM218 305h19v1h-19zM295 305h60v1h-60zM415 305h36v1h-36zM24 306h132v1h-132zM218 306h19v1h-19zM295 306h60v1h-60zM415 306h36v1h-36zM25 307h131v1h-131zM218 307h19v1h-19zM295 307h60v1h-60zM415 307h36v1h-36zM26 308h130v1h-130zM218 308h19v1h-19zM295 308h60v1h-60zM415 308h36v1h-36zM27 309h129v1h-129zM218 309h18v1h-18zM295 309h60v1h-60zM415 309h36v1h-36zM28 310h129v1h-129zM218 310h18v1h-18zM295 310h59v1h-59zM415 310h36v1h-36zM29 311h128v1h-128zM217 311h19v1h-19zM296 311h58v1h-58zM415 311h36v1h-36zM30 312h127v1h-127zM217 312h19v1h-19zM296 312h58v1h-58zM415 312h36v1h-36zM31 313h126v1h-126zM217 313h19v1h-19zM296 313h58v1h-58zM415 313h36v1h-36zM32 314h126v1h-126zM217 314h19v1h-19zM296 314h57v1h-57zM415 314h36v1h-36zM34 315h124v1h-124zM216 315h20v1h-20zM297 315h56v1h-56zM414 315h37v1h-37zM35 316h123v1h-123zM216 316h20v1h-20zM297 316h56v1h-56zM414 316h37v1h-37zM36 317h123v1h-123zM216 317h20v1h-20zM297 317h55v1h-55zM414 317h37v1h-37zM38 318h121v1h-121zM215 318h21v1h-21zM298 318h54v1h-54zM413 318h38v1h-38zM39 319h121v1h-121zM214 319h22v1h-22zM299 319h52v1h-52zM413 319h38v1h-38zM41 320h119v1h-119zM214 320h22v1h-22zM299 320h52v1h-52zM413 320h38v1h-38zM42 321h119v1h-119zM213 321h23v1h-23zM300 321h50v1h-50zM412 321h38v1h-38zM44 322h117v1h-117zM213 322h23v1h-23zM300 322h50v1h-50zM412 322h38v1h-38zM46 323h116v1h-116zM212 323h23v1h-23zM301 323h48v1h-48zM411 323h39v1h-39zM48 324h115v1h-115zM211 324h24v1h-24zM302 324h46v1h-46zM410 324h40v1h-40zM50 325h114v1h-114zM210 325h25v1h-25zM303 325h44v1h-44zM410 325h40v1h-40zM52 326h113v1h-113zM210 326h25v1h-25zM304 326h42v1h-42zM409 326h40v1h-40zM55 327h111v1h-111zM209 327h26v1h-26zM305 327h40v1h-40zM408 327h41v1h-41zM57 328h110v1h-110zM207 328h28v1h-28zM306 328h38v1h-38zM407 328h42v1h-42zM60 329h108v1h-108zM206 329h29v1h-29zM307 329h36v1h-36zM407 329h41v1h-41zM61 330h108v1h-108zM205 330h30v1h-30zM309 330h32v1h-32zM406 330h42v1h-42zM61 331h110v1h-110zM203 331h31v1h-31zM310 331h29v1h-29zM405 331h43v1h-43zM62 332h111v1h-111zM202 332h32v1h-32zM312 332h26v1h-26zM404 332h43v1h-43zM62 333h112v1h-112zM200 333h34v1h-34zM315 333h20v1h-20zM403 333h44v1h-44zM62 334h115v1h-115zM197 334h37v1h-37zM318 334h14v1h-14zM402 334h44v1h-44zM62 335h119v1h-119zM194 335h40v1h-40zM401 335h45v1h-45zM62 336h172v1h-172zM400 336h46v1h-46zM62 337h172v1h-172zM398 337h47v1h-47zM62 338h171v1h-171zM397 338h48v1h-48zM62 339h171v1h-171zM396 339h48v1h-48zM63 340h170v1h-170zM395 340h49v1h-49zM63 341h170v1h-170zM393 341h50v1h-50zM63 342h170v1h-170zM392 342h50v1h-50zM63 343h169v1h-169zM390 343h52v1h-52zM63 344h169v1h-169zM388 344h53v1h-53zM63 345h169v1h-169zM387 345h53v1h-53zM64 346h168v1h-168zM384 346h56v1h-56zM64 347h168v1h-168zM382 347h57v1h-57zM64 348h167v1h-167zM376 348h62v1h-62zM64 349h167v1h-167zM374 349h64v1h-64zM65 350h166v1h-166zM371 350h66v1h-66zM65 351h166v1h-166zM369 351h67v1h-67zM65 352h165v1h-165zM368 352h67v1h-67zM65 353h165v1h-165zM367 353h67v1h-67zM66 354h164v1h-164zM366 354h68v1h-68zM66 355h163v1h-163zM365 355h68v1h-68zM66 356h163v1h-163zM365 356h67v1h-67zM66 357h163v1h-163zM364 357h67v1h-67zM67 358h161v1h-161zM364 358h66v1h-66zM67 359h161v1h-161zM363 359h66v1h-66zM67 360h161v1h-161zM363 360h65v1h-65zM68 361h159v1h-159zM362 361h65v1h-65zM68 362h159v1h-159zM362 362h64v1h-64zM68 363h159v1h-159zM362 363h63v1h-63zM69 364h157v1h-157zM362 364h62v1h-62zM69 365h157v1h-157zM362 365h60v1h-60zM69 366h156v1h-156zM362 366h59v1h-59zM70 367h155v1h-155zM362 367h58v1h-58zM70 368h155v1h-155zM361 368h57v1h-57zM71 369h153v1h-153zM361 369h56v1h-56zM71 370h153v1h-153zM361 370h55v1h-55zM71 371h152v1h-152zM361 371h54v1h-54zM72 372h151v1h-151zM361 372h52v1h-52zM72 373h150v1h-150zM361 373h50v1h-50zM73 374h149v1h-149zM360 374h50v1h-50zM73 375h148v1h-148zM360 375h48v1h-48zM74 376h146v1h-146zM360 376h46v1h-46zM74 377h146v1h-146zM360 377h45v1h-45zM75 378h144v1h-144zM360 378h43v1h-43zM75 379h143v1h-143zM359 379h41v1h-41zM76 380h142v1h-142zM359 380h39v1h-39zM76 381h141v1h-141zM359 381h37v1h-37zM77 382h139v1h-139zM358 382h38v1h-38zM77 383h138v1h-138zM358 383h38v1h-38zM78 384h136v1h-136zM358 384h38v1h-38zM78 385h136v1h-136zM358 385h38v1h-38zM79 386h134v1h-134zM357 386h38v1h-38zM80 387h132v1h-132zM357 387h38v1h-38zM80 388h130v1h-130zM357 388h38v1h-38zM81 389h128v1h-128zM357 389h38v1h-38zM82 390h126v1h-126zM356 390h38v1h-38zM82 391h124v1h-124zM356 391h38v1h-38zM83 392h121v1h-121zM355 392h39v1h-39zM84 393h118v1h-118zM355 393h38v1h-38zM85 394h91v1h-91zM355 394h38v1h-38zM86 395h84v1h-84zM354 395h39v1h-39zM86 396h81v1h-81zM354 396h39v1h-39zM87 397h78v1h-78zM353 397h39v1h-39zM88 398h75v1h-75zM353 398h39v1h-39zM89 399h72v1h-72zM352 399h40v1h-40zM90 400h70v1h-70zM352 400h39v1h-39zM91 401h69v1h-69zM352 401h39v1h-39zM92 402h68v1h-68zM351 402h40v1h-40zM93 403h68v1h-68zM351 403h39v1h-39zM94 404h67v1h-67zM350 404h40v1h-40zM96 405h66v1h-66zM349 405h41v1h-41zM97 406h65v1h-65zM349 406h40v1h-40zM99 407h64v1h-64zM348 407h41v1h-41zM100 408h63v1h-63zM348 408h40v1h-40zM102 409h62v1h-62zM347 409h41v1h-41zM104 410h61v1h-61zM347 410h41v1h-41zM106 411h59v1h-59zM346 411h41v1h-41zM109 412h57v1h-57zM346 412h41v1h-41zM112 413h54v1h-54zM345 413h41v1h-41zM125 414h42v1h-42zM344 414h42v1h-42zM126 415h42v1h-42zM343 415h42v1h-42zM126 416h42v1h-42zM343 416h42v1h-42zM127 417h42v1h-42zM342 417h43v1h-43zM127 418h43v1h-43zM341 418h43v1h-43zM128 419h42v1h-42zM341 419h43v1h-43zM128 420h43v1h-43zM340 420h43v1h-43zM129 421h43v1h-43zM339 421h44v1h-44zM129 422h44v1h-44zM339 422h43v1h-43zM130 423h43v1h-43zM338 423h43v1h-43zM130 424h44v1h-44zM337 424h44v1h-44zM131 425h44v1h-44zM336 425h44v1h-44zM131 426h45v1h-45zM335 426h45v1h-45zM132 427h45v1h-45zM334 427h45v1h-45zM133 428h45v1h-45zM333 428h46v1h-46zM133 429h46v1h-46zM333 429h45v1h-45zM134 430h45v1h-45zM332 430h46v1h-46zM134 431h46v1h-46zM331 431h46v1h-46zM135 432h46v1h-46zM330 432h46v1h-46zM135 433h47v1h-47zM329 433h47v1h-47zM136 434h47v1h-47zM328 434h47v1h-47zM137 435h47v1h-47zM327 435h47v1h-47zM138 436h47v1h-47zM326 436h48v1h-48zM138 437h48v1h-48zM325 437h48v1h-48zM139 438h48v1h-48zM324 438h48v1h-48zM140 439h48v1h-48zM323 439h48v1h-48zM140 440h50v1h-50zM322 440h49v1h-49zM141 441h50v1h-50zM320 441h50v1h-50zM142 442h50v1h-50zM319 442h50v1h-50zM142 443h51v1h-51zM318 443h51v1h-51zM143 444h51v1h-51zM317 444h51v1h-51zM144 445h52v1h-52zM316 445h51v1h-51zM145 446h52v1h-52zM314 446h52v1h-52zM146 447h52v1h-52zM313 447h52v1h-52zM146 448h54v1h-54zM312 448h53v1h-53zM147 449h54v1h-54zM310 449h54v1h-54zM148 450h54v1h-54zM309 450h54v1h-54zM149 451h55v1h-55zM308 451h54v1h-54zM150 452h55v1h-55zM306 452h55v1h-55zM151 453h56v1h-56zM305 453h55v1h-55zM152 454h56v1h-56zM303 454h57v1h-57zM153 455h57v1h-57zM302 455h57v1h-57zM153 456h58v1h-58zM300 456h58v1h-58zM154 457h59v1h-59zM298 457h59v1h-59zM155 458h60v1h-60zM297 458h59v1h-59zM156 459h60v1h-60zM295 459h60v1h-60zM157 460h61v1h-61zM293 460h61v1h-61zM158 461h62v1h-62zM291 461h62v1h-62zM159 462h63v1h-63zM289 462h63v1h-63zM161 463h63v1h-63zM288 463h63v1h-63zM162 464h64v1h-64zM286 464h64v1h-64zM163 465h65v1h-65zM283 465h66v1h-66zM164 466h67v1h-67zM281 466h67v1h-67zM165 467h68v1h-68zM279 467h67v1h-67zM166 468h69v1h-69zM276 468h69v1h-69zM167 469h71v1h-71zM274 469h70v1h-70zM168 470h73v1h-73zM271 470h72v1h-72zM169 471h75v1h-75zM268 471h74v1h-74zM171 472h76v1h-76zM264 472h77v1h-77zM172 473h80v1h-80zM260 473h79v1h-79zM173 474h165v1h-165zM174 475h163v1h-163zM176 476h160v1h-160zM177 477h157v1h-157zM178 478h155v1h-155zM180 479h151v1h-151zM181 480h149v1h-149zM183 481h146v1h-146zM184 482h143v1h-143zM185 483h141v1h-141zM187 484h137v1h-137zM189 485h134v1h-134zM190 486h131v1h-131zM192 487h128v1h-128zM193 488h125v1h-125zM195 489h121v1h-121zM197 490h118v1h-118zM198 491h115v1h-115zM200 492h111v1h-111zM202 493h107v1h-107zM204 494h103v1h-103zM206 495h99v1h-99zM208 496h96v1h-96zM210 497h91v1h-91zM212 498h87v1h-87zM215 499h82v1h-82zM217 500h78v1h-78zM219 501h74v1h-74zM222 502h68v1h-68zM224 503h63v1h-63zM227 504h58v1h-58zM230 505h52v1h-52zM233 506h46v1h-46zM237 507h38v1h-38zM241 508h30v1h-30zM246 509h20v1h-20z" fill="#000000" fill-rule="evenodd" transform="translate(64 68) scale(0.72)"/>
</svg>
